<svg width="64" height="64" viewBox="0 0 64 64" xmlns="http://www.w3.org/2000/svg" xmlns:xlink="http://www.w3.org/1999/xlink"><title>599AE496-ACCA-4E13-BC6E-12AC187A1330</title><defs><path d="M6.738 43.294l-.466-.032A6.308 6.308 0 0 1 .02 36.957V6.327A6.308 6.308 0 0 1 6.326.02h30.63a6.308 6.308 0 0 1 6.306 6.306v.412h.412a6.308 6.308 0 0 1 6.306 6.305v30.63a6.308 6.308 0 0 1-6.306 6.307h-30.63a6.308 6.308 0 0 1-6.306-6.306v-.38zM40.324 6.738v-.412a3.37 3.37 0 0 0-3.367-3.367H6.327a3.37 3.37 0 0 0-3.368 3.367v30.63c0 1.858 1.51 3.368 3.468 3.371l.31.022V13.043a6.308 6.308 0 0 1 6.306-6.305h27.28zm6.717 6.305a3.37 3.37 0 0 0-3.367-3.367h-30.63a3.37 3.37 0 0 0-3.368 3.367v30.63a3.37 3.37 0 0 0 3.367 3.368h30.63a3.37 3.37 0 0 0 3.368-3.367v-30.63zm-9.138 4.473a1.47 1.47 0 0 1 0 2.938H18.367a1.47 1.47 0 1 1 0-2.938h19.536zm0 9.12a1.47 1.47 0 0 1 0 2.94h-9.358a1.47 1.47 0 1 1 0-2.94h9.358zm0 9.122a1.47 1.47 0 0 1 0 2.939H18.367a1.47 1.47 0 1 1 0-2.939h19.536zm-20.599-5.433L19.57 28.3l-2.323-2.309a1.47 1.47 0 1 1 2.072-2.084l3.429 3.409a1.47 1.47 0 0 1-.057 2.138l-3.43 3.062a1.47 1.47 0 1 1-1.957-2.192z" id="a"/></defs><g transform="translate(7 7)" fill="none" fill-rule="evenodd"><mask id="b" fill="#fff"><use xlink:href="#a"/></mask><use fill="#000" fill-rule="nonzero" xlink:href="#a"/><g mask="url(#b)" fill="#00ACC1"><path d="M-8-8h64v64H-8z"/></g></g></svg>