<svg width="160" height="64" viewBox="0 0 160 64" xmlns="http://www.w3.org/2000/svg" xmlns:xlink="http://www.w3.org/1999/xlink"><title>93D337E0-AE3F-4ECD-AE42-8970DADE26A7</title><defs><path id="a" d="M0 .16v19.77h15.926V.16H0z"/><path id="c" d="M12.664 12.215V.117H.452v12.098z"/><path id="e" d="M12.728.102H.523v13.905h12.205V.102z"/></defs><g fill="none" fill-rule="evenodd"><path d="M31.112 48.888c0 .853-.139 1.633-.416 2.34a5.281 5.281 0 0 1-1.172 1.82c-.504.507-1.11.9-1.816 1.18-.707.28-1.492.42-2.356.42H21v-11.52h4.352c.864 0 1.65.14 2.356.42.707.28 1.312.673 1.816 1.18a5.281 5.281 0 0 1 1.172 1.82c.277.707.416 1.487.416 2.34zm-1.912 0c0-.661-.09-1.256-.268-1.784a3.693 3.693 0 0 0-.768-1.336 3.347 3.347 0 0 0-1.212-.836 4.182 4.182 0 0 0-1.6-.292H22.88v8.496h2.472c.592 0 1.125-.096 1.6-.288.475-.192.879-.47 1.212-.836.333-.365.59-.81.768-1.336.179-.525.268-1.121.268-1.788zm39.572 0c0 .853-.139 1.64-.416 2.36a5.454 5.454 0 0 1-1.172 1.86c-.504.52-1.11.927-1.816 1.22-.707.293-1.492.44-2.356.44-.859 0-1.641-.147-2.348-.44a5.396 5.396 0 0 1-1.82-1.22 5.423 5.423 0 0 1-1.176-1.86 6.512 6.512 0 0 1-.416-2.36c0-.853.139-1.64.416-2.36.277-.72.67-1.341 1.176-1.864a5.367 5.367 0 0 1 1.82-1.224c.707-.293 1.49-.44 2.348-.44.864 0 1.65.147 2.356.44a5.324 5.324 0 0 1 1.816 1.224 5.497 5.497 0 0 1 1.172 1.864c.277.72.416 1.507.416 2.36zm-1.912 0c0-.661-.09-1.256-.268-1.784a3.775 3.775 0 0 0-.768-1.344 3.343 3.343 0 0 0-1.212-.848 4.132 4.132 0 0 0-1.6-.296 4.11 4.11 0 0 0-1.592.296c-.475.197-.88.48-1.216.848a3.79 3.79 0 0 0-.776 1.344c-.181.528-.272 1.123-.272 1.784 0 .667.09 1.264.272 1.792.181.528.44.975.776 1.34.336.365.741.645 1.216.84a4.16 4.16 0 0 0 1.592.292c.592 0 1.125-.097 1.6-.292a3.324 3.324 0 0 0 1.212-.84c.333-.365.59-.812.768-1.34.179-.528.268-1.125.268-1.792zm36.74 3.192c.101 0 .19.04.264.12l.744.808a4.736 4.736 0 0 1-1.728 1.308c-.683.307-1.499.46-2.448.46-.843 0-1.604-.145-2.284-.436a5.02 5.02 0 0 1-1.74-1.216c-.48-.52-.85-1.14-1.108-1.86-.259-.72-.388-1.512-.388-2.376 0-.864.137-1.657.412-2.38a5.459 5.459 0 0 1 1.16-1.864 5.21 5.21 0 0 1 1.792-1.212c.696-.288 1.463-.432 2.3-.432.832 0 1.567.135 2.204.404a5.45 5.45 0 0 1 1.66 1.076l-.616.872a.685.685 0 0 1-.152.152.4.4 0 0 1-.24.064c-.107 0-.228-.05-.364-.148a5.738 5.738 0 0 0-.52-.328c-.21-.12-.475-.23-.792-.328-.317-.099-.713-.148-1.188-.148-.55 0-1.053.096-1.512.288a3.269 3.269 0 0 0-1.184.84c-.33.368-.588.816-.772 1.344-.184.528-.276 1.128-.276 1.8 0 .677.096 1.281.288 1.812.192.53.456.979.792 1.344.336.365.73.644 1.184.836.453.192.941.288 1.464.288.32 0 .607-.017.86-.052a3.238 3.238 0 0 0 1.304-.46c.19-.117.377-.261.564-.432a.482.482 0 0 1 .32-.144zm33.436-6.984a.706.706 0 0 1-.184.212.405.405 0 0 1-.24.068.623.623 0 0 1-.34-.128 6.666 6.666 0 0 0-.464-.284 4.068 4.068 0 0 0-.652-.288 2.712 2.712 0 0 0-.896-.132c-.32 0-.601.04-.844.12-.243.08-.447.192-.612.336-.165.144-.29.313-.372.508a1.61 1.61 0 0 0-.124.636c0 .293.077.537.232.732.155.195.359.361.612.5s.543.26.868.364c.325.104.657.215.996.332.339.117.67.25.996.4.325.15.615.339.868.568.253.23.457.51.612.84.155.33.232.733.232 1.208 0 .512-.088.992-.264 1.44-.176.448-.43.839-.764 1.172a3.558 3.558 0 0 1-1.232.788c-.488.192-1.044.288-1.668.288-.368 0-.727-.036-1.076-.108a5.576 5.576 0 0 1-1-.304 5.006 5.006 0 0 1-.892-.476 4.477 4.477 0 0 1-.744-.624l.544-.896a.528.528 0 0 1 .184-.176.491.491 0 0 1 .248-.064c.123 0 .259.057.408.172.15.115.33.24.54.376.21.136.465.261.764.376.299.115.656.172 1.072.172.677 0 1.201-.165 1.572-.496.37-.33.556-.787.556-1.368 0-.325-.077-.59-.232-.796a1.884 1.884 0 0 0-.612-.516 4.397 4.397 0 0 0-.868-.352 37.575 37.575 0 0 1-.992-.308 9.762 9.762 0 0 1-.992-.384 3.157 3.157 0 0 1-.868-.576 2.668 2.668 0 0 1-.612-.88c-.155-.35-.232-.785-.232-1.308a3.104 3.104 0 0 1 .956-2.244 3.484 3.484 0 0 1 1.156-.724c.459-.181.981-.272 1.568-.272.661 0 1.268.104 1.82.312a4.145 4.145 0 0 1 1.428.888l-.456.896z" fill="#2C3549"/><path fill="#4BBABB" d="M51.007 9.313L39.596 29.14h9.73v-3.555h-3.585l5.266-9.148 5.265 9.148h-3.354v3.555h9.507z"/><path fill="#1D2636" d="M92.179 9.313V29.14h4.248V18.058l4.948 3.9v.058l4.963-3.901v11.026h4.248V9.371l-9.211 7.225v-.05zM73.865 16.287L66.926 9.37l-3.001 2.995 7.783 7.765v9.01h4.248v-8.952l7.841-7.823-3-2.995z"/><g transform="translate(21 9.21)"><mask id="b" fill="#fff"><use xlink:href="#a"/></mask><path d="M4.249 4.392v3.534H9.91c.49 0 .908-.173 1.247-.511.347-.346.52-.764.52-1.253 0-.49-.173-.907-.52-1.252a1.684 1.684 0 0 0-1.247-.518H4.249zM-.001.16h9.912c1.66 0 3.08.582 4.248 1.756 1.176 1.173 1.767 2.59 1.767 4.246 0 1.656-.591 3.073-1.767 4.247-1.168 1.165-2.589 1.755-4.248 1.755H4.249v7.766h-4.25V.16z" fill="#1D2636" mask="url(#b)"/></g><path d="M134.022 24.254a6.955 6.955 0 0 0 .187-1.604c0-3.261-2.28-5.981-5.337-6.666l3.267-6.08a9.952 9.952 0 0 1 6.312 7.139c.1.777.072 1.576-.116 2.368-.52 2.216-2.157 3.93-4.313 4.843" fill="#495266"/><path d="M128.626 22.347c-1.37 2.512-2.163 4.023-3.325 6.182a9.525 9.525 0 0 1-1.954-.978 12.834 12.834 0 0 1-1.883-1.584 9.625 9.625 0 0 1-1.81-2.75l-.015-.043.007-.014a.658.658 0 0 1-.036-.115c-.223-.842-.469-2.332-.274-3.476.022-.094.043-.194.065-.295.512-1.987 1.86-3.584 3.671-4.578-.029.26-.043.526-.043.792 0 3.383 2.402 6.204 5.597 6.859" fill="#6AC3CA"/><g transform="translate(126.025 16.926)"><mask id="d" fill="#fff"><use xlink:href="#c"/></mask><path d="M2.615 7.919L.452 11.956c.165.036.33.072.504.108.635.094 1.255.144 1.862.151 5.445-.043 9.846-4.462 9.846-9.91 0-.756-.08-1.483-.239-2.188a6.567 6.567 0 0 1-.115 2.368c-.91 3.85-5.165 6.182-9.695 5.434" fill="#1D2636" mask="url(#d)"/></g><g transform="translate(118.293 9.21)"><mask id="f" fill="#fff"><use xlink:href="#e"/></mask><path d="M12.728.361l-2.23 4.067c-4.435-.504-8.417 1.863-9.39 5.635-.325 1.245.007 3.08.252 3.944a9.997 9.997 0 0 1-.837-3.865A11.097 11.097 0 0 1 1.692 5.35C3.82 1.376 8.357-.653 12.728.36" fill="#38AAAB" mask="url(#f)"/></g></g></svg>